<svg xmlns="http://www.w3.org/2000/svg" enable-background="new 0 0 60 60" viewBox="0 0 60 60" id="spotify">
  <g>
    <path fill="#FFF" d="M50,60H10C4.477,60,0,55.523,0,50V10C0,4.477,4.477,0,10,0h40c5.523,0,10,4.477,10,10v40
		C60,55.523,55.523,60,50,60z"></path>
  </g>
  <g>
    <circle cx="33" cy="33" r="24" fill="#B3FFCE"></circle>
    <path fill="#0C3" d="M30,55.5C15.939,55.5,4.5,44.061,4.5,30S15.939,4.5,30,4.5S55.5,15.939,55.5,30S44.061,55.5,30,55.5z
		 M30,7.5C17.593,7.5,7.5,17.594,7.5,30S17.593,52.5,30,52.5S52.5,42.406,52.5,30S42.407,7.5,30,7.5z"></path>
    <g>
      <g>
        <path fill="#FFF" d="M46.133,26.96c-0.277,0-0.559-0.059-0.828-0.181c-4.474-2.036-9.271-3.447-14.259-4.194
				c-4.99-0.746-9.99-0.805-14.862-0.171c-1.088,0.153-2.099-0.63-2.242-1.725c-0.143-1.096,0.63-2.1,1.725-2.242
				c5.241-0.683,10.615-0.621,15.972,0.183c5.355,0.802,10.51,2.318,15.323,4.509c1.005,0.457,1.449,1.644,0.992,2.648
				C47.619,26.524,46.893,26.959,46.133,26.96z"></path>
        <path fill="#0C3" d="M46.134,27.71C46.133,27.71,46.133,27.71,46.134,27.71c-0.394,0-0.776-0.083-1.139-0.248
				c-4.411-2.007-9.141-3.398-14.06-4.135c-4.893-0.734-9.864-0.792-14.654-0.169c-0.12,0.017-0.246,0.025-0.37,0.025
				c-1.368,0-2.534-1.03-2.712-2.397c-0.016-0.121-0.023-0.24-0.023-0.357c0-1.376,1.03-2.548,2.396-2.726
				c5.276-0.688,10.773-0.624,16.18,0.185c5.425,0.812,10.647,2.35,15.522,4.568c0.979,0.445,1.611,1.428,1.611,2.504
				c0,0.394-0.083,0.776-0.248,1.138C48.192,27.075,47.21,27.709,46.134,27.71z M22.953,21.229c2.718,0,5.479,0.207,8.205,0.614
				c5.057,0.758,9.922,2.188,14.458,4.254c0.623,0.283,1.38-0.014,1.656-0.62c0.075-0.165,0.113-0.339,0.113-0.517
				c0-0.489-0.288-0.937-0.732-1.139c-4.749-2.161-9.837-3.658-15.124-4.449c-5.27-0.79-10.625-0.851-15.764-0.181
				c-0.621,0.08-1.089,0.612-1.089,1.237c0,0.055,0.004,0.109,0.011,0.166c0.088,0.677,0.706,1.17,1.395,1.076
				C18.345,21.377,20.655,21.229,22.953,21.229z"></path>
      </g>
      <g>
        <path fill="#FFF" d="M41.806,36.017c-0.288,0.001-0.58-0.062-0.857-0.193c-3.562-1.693-7.388-2.854-11.37-3.452
				c-3.982-0.596-7.979-0.607-11.882-0.034c-1.097,0.16-2.109-0.595-2.27-1.688c-0.161-1.093,0.595-2.109,1.688-2.27
				c4.292-0.633,8.685-0.62,13.057,0.036c4.372,0.655,8.575,1.932,12.494,3.794c0.998,0.475,1.422,1.668,0.948,2.665
				C43.271,35.596,42.554,36.017,41.806,36.017z"></path>
        <path fill="#0C3" d="M41.806,36.767c-0.412,0-0.809-0.09-1.18-0.267c-3.494-1.66-7.249-2.801-11.158-3.388
				c-3.896-0.583-7.852-0.593-11.662-0.033c-1.492,0.22-2.904-0.849-3.121-2.32c-0.02-0.135-0.03-0.271-0.03-0.403
				c0-1.354,1.011-2.521,2.351-2.718c4.346-0.641,8.859-0.628,13.277,0.037c4.445,0.666,8.719,1.964,12.704,3.857
				c0.954,0.454,1.57,1.43,1.57,2.486c0,0.41-0.09,0.807-0.267,1.179C43.838,36.15,42.862,36.767,41.806,36.767z M23.492,31.165
				c2.053,0,4.139,0.156,6.198,0.464c4.056,0.609,7.953,1.792,11.581,3.517c0.601,0.289,1.379,0.009,1.666-0.592
				c0.08-0.17,0.121-0.35,0.121-0.535c0-0.48-0.28-0.925-0.714-1.132c-3.851-1.83-7.984-3.085-12.283-3.729
				c-4.272-0.644-8.634-0.656-12.836-0.036c-0.61,0.089-1.069,0.619-1.069,1.233c0,0.061,0.005,0.122,0.014,0.184
				c0.099,0.67,0.735,1.168,1.417,1.056C19.528,31.31,21.515,31.165,23.492,31.165z"></path>
      </g>
      <g>
        <path fill="#FFF" d="M37.477,45.091c-0.31,0-0.624-0.071-0.917-0.224c-2.607-1.348-5.449-2.26-8.448-2.71
				c-2.995-0.448-5.98-0.41-8.871,0.113c-1.088,0.198-2.127-0.523-2.325-1.61s0.524-2.128,1.611-2.325
				c3.321-0.603,6.746-0.648,10.178-0.133c3.434,0.516,6.695,1.562,9.692,3.112c0.981,0.507,1.365,1.714,0.858,2.695
				C38.899,44.697,38.2,45.091,37.477,45.091z"></path>
        <path fill="#0C3" d="M37.477,45.841c-0.438,0-0.875-0.106-1.263-0.308c-2.534-1.311-5.297-2.196-8.214-2.635
				c-2.883-0.431-5.816-0.396-8.626,0.11c-1.489,0.271-2.93-0.743-3.196-2.215c-0.03-0.166-0.045-0.331-0.045-0.493
				c0-1.328,0.95-2.466,2.259-2.704c3.381-0.611,6.923-0.659,10.423-0.137c3.517,0.528,6.856,1.601,9.926,3.188
				c0.917,0.475,1.487,1.411,1.487,2.444c0,0.438-0.107,0.875-0.309,1.263C39.446,45.271,38.51,45.841,37.477,45.841z
				 M23.983,41.098c1.406,0,2.833,0.107,4.239,0.317c3.08,0.463,6,1.399,8.681,2.786c0.598,0.309,1.376,0.059,1.685-0.536
				c0.093-0.18,0.14-0.371,0.14-0.572c0-0.471-0.259-0.896-0.676-1.112c-2.923-1.512-6.106-2.533-9.459-3.037
				c-3.337-0.499-6.714-0.455-9.933,0.13c-0.595,0.108-1.027,0.624-1.027,1.228c0,0.074,0.007,0.149,0.021,0.226
				c0.122,0.669,0.766,1.131,1.45,1.007C20.705,41.244,22.346,41.098,23.983,41.098z"></path>
      </g>
    </g>
  </g>
</svg>
